# xmcd
#
# Track frame offsets:
#	150
#	11910
#	26030
#	49562
#	62375
#	77282
#	95377
#	107815
#	122257
#	138107
#
# Disc length: 2056 seconds
#
# Revision: 1
# Processed by: cddbd v1.5.1PL0 Copyright (c) Steve Scherf et al.
# Submitted via: audiograbber 1.83.01
#
DISCID=6c08060a
DTITLE=Detour - Honky Tonkin' 'Till It Hurts
DYEAR=1991
DGENRE=Country
TTITLE0=Deep In The Heart Of Texas
TTITLE1=Louisville
TTITLE2=Is All The Magic Gone
TTITLE3=Lynda
TTITLE4=Anyway You Want My Love
TTITLE5=Jambalaya
TTITLE6=Honky Tonk Song
TTITLE7=Detour
TTITLE8=Who's To Blame
TTITLE9=Stand Up
EXTD=
EXTT0=
EXTT1=
EXTT2=
EXTT3=
EXTT4=
EXTT5=
EXTT6=
EXTT7=
EXTT8=
EXTT9=
PLAYORDER=
